<svg xmlns="http://www.w3.org/2000/svg" xmlns:xlink="http://www.w3.org/1999/xlink" width="35" height="35" id="bill"><defs><linearGradient id="a"><stop offset="0" stop-color="#11998e"></stop><stop offset="1" stop-color="#38ef7d"></stop></linearGradient><linearGradient id="b" x1=".916" x2="29" y1="15.997" y2="15.997" gradientUnits="userSpaceOnUse" xlink:href="#a"></linearGradient></defs><g style="line-height:125%"><path style="text-indent:0;text-align:start;line-height:125%;text-transform:none;block-progression:tb;marker:none;-inkscape-font-specification:Sans" fill="url(#b)" d="M1.344 0A.506.506 0 1 0 1.5 1a.504.504 0 0 0 .094 0C2.956 1.046 4 2.061 4 3.313V26c0 1.555 1.201 2.822 2.719 2.969a.504.504 0 0 0 .125.031h.031a.504.504 0 0 0 .094 0H14v2.5a.5.5 0 0 0 .5.5h6a.5.5 0 0 0 .5-.5V25h9.437C31.3 25 32 24.268 32 23.406V10.562C32 9.701 31.3 9 30.437 9H21v-.688c0-1.682-1.323-3.016-3-3.25v-1.75C18 1.462 16.415 0 14.5 0h-13a.5.5 0 0 0-.156 0zM4 1h10.5C15.91 1 17 2.032 17 3.313V5h-4.813a.5.5 0 0 0-.062 0H12c-1.653 0-3 1.347-3 3v1h-.438C7.702 9 7 9.7 7 10.563v12.843C7 24.268 7.7 25 8.563 25H9v1a.5.5 0 0 0 0 .125A1.989 1.989 0 0 1 7 28c-1.117 0-2-.883-2-2V3.312C5 2.402 4.617 1.595 4 1zm8 5c.88 0 1.313.253 1.594.625.28.372.393.907.406 1.375v.25a.5.5 0 0 0 0 .063V9h-4V8c0-1.117.883-2 2-2zm2.344 0h2.969a.506.506 0 0 0 .187 0C18.91 6 20 7.032 20 8.313V31h-5v-4.906a.5.5 0 0 0 0-.032V8.313a.5.5 0 0 0 0-.093V8a.5.5 0 0 0 0-.031c-.016-.602-.163-1.327-.625-1.938-.009-.011-.022-.02-.031-.031zM16 9.5v1h2v-1h-2zm-7.438.5H14v1H8v-.438c0-.325.237-.562.563-.562zM21 10h9.437c.326 0 .563.237.563.563V11H21v-1zm-5 1.5v1h3v-1h-3zM8 12h6v2H8v-2zm13 0h10v2H21v-2zm-5 1.5v1h2v-1h-2zM8 15h6v2H9v3h5v2h-1v1h1v1H8.562C8.238 24 8 23.731 8 23.406V15zm13 0h10v8.406c0 .325-.237.594-.563.594H21v-1h3v-1h-3v-7zm-5 .5v1h1v-1h-1zm8.313.5c-1.28.1-2.317 1.217-2.313 2.5 0 1.35 1.15 2.5 2.5 2.5.552 0 1.1-.193 1.531-.531.421.32.915.531 1.469.531 1.35 0 2.5-1.15 2.5-2.5S28.85 16 27.5 16c-.552 0-1.049.212-1.469.531a2.498 2.498 0 0 0-1.5-.531h-.219zm.062 1h.125c.3 0 .568.158.813.344-.144.26-.24.543-.282.843-.028.103-.03.204-.031.313 0 .11.003.21.031.313.04.299.142.584.282.843-.245.186-.513.343-.813.344-.744 0-1.5-.756-1.5-1.5-.002-.711.666-1.444 1.375-1.5zm3.125 0c.744 0 1.5.756 1.5 1.5s-.756 1.5-1.5 1.5c-.558 0-1.127-.411-1.375-.938-.022-.052-.046-.101-.063-.156-.013-.039-.021-.085-.03-.125A1.473 1.473 0 0 1 26 18.5c0-.744.756-1.5 1.5-1.5zm-11.5.5v1h3v-1h-3zm-6 .5h4v1h-4v-1zm6 1.5v1h2v-1h-2zM9 22v1h3v-1H9zm1 3h4v1.063a.5.5 0 0 0 0 .062V28H9.219a2.948 2.948 0 0 0 .75-1.813.5.5 0 0 0 .031-.062v-.031a.5.5 0 0 0 0-.032V25z" color="#000" font-family="sans-serif" font-weight="400" letter-spacing="0" overflow="visible" word-spacing="0"></path></g></svg>