<svg viewBox="0 0 1000 1000" xmlns="http://www.w3.org/2000/svg"><defs><linearGradient id="b" gradientTransform="rotate(135 .5 .5)"><stop offset="0%" stop-color="#92ffce"/><stop offset="100%" stop-color="#2af598"/></linearGradient><clipPath id="a"><path fill="currentColor" d="M877 630.5q-18 130.5-140 177T493.5 874Q372 894 268 819T91.5 622q-72.5-122 10-237T273 173q89-97 222.5-83T749 168q120 64 133 198t-5 264.5Z"/></clipPath></defs><g clip-path="url(#a)"><path fill="url(#b)" d="M877 630.5q-18 130.5-140 177T493.5 874Q372 894 268 819T91.5 622q-72.5-122 10-237T273 173q89-97 222.5-83T749 168q120 64 133 198t-5 264.5Z"/></g></svg>