<svg xmlns="http://www.w3.org/2000/svg" xmlns:xlink="http://www.w3.org/1999/xlink" data-name="Layer 1" viewBox="0 0 512 512" id="wallet-rupees"><defs><linearGradient id="a" x1="256.037" x2="256.037" y1="24.116" y2="486.162" gradientUnits="userSpaceOnUse"><stop offset="0" stop-color="#00efd1"></stop><stop offset="1" stop-color="#00acea"></stop></linearGradient><linearGradient id="b" x1="404.829" x2="404.829" y1="24.116" y2="486.162" xlink:href="#a"></linearGradient><linearGradient id="c" x1="125" x2="125" y1="24.116" y2="486.162" xlink:href="#a"></linearGradient></defs><path fill="url(#a)" d="M475.148,130H409V37.6a8.121,8.121,0,0,0-10.8-7.54L317.7,58.6l-29.947-29.67a8.007,8.007,0,0,0-11.294.025L207.728,97.5,94.594,130h-.038C90.138,130,87,133.942,87,138.36v161.1C53,314.611,29.074,348.7,29.074,388.234A96.983,96.983,0,0,0,212.647,432h262.5A7.724,7.724,0,0,0,483,424.179V138.36C483,133.942,479.566,130,475.148,130ZM393,48.925V130h-2.915L330.379,70.918Zm-110.866-3.39L367.355,130H197.67Zm-97.828,75.2L175.042,130h-22.8Zm-58.3,348.657a81.159,81.159,0,1,1,81.159-81.159A81.25,81.25,0,0,1,126.01,469.393ZM219.066,416a97.049,97.049,0,0,0-92.834-124.969A92.159,92.159,0,0,0,103,293.944V146H467v68H414.72a67.5,67.5,0,1,0,0,135H467v67ZM467,230V333H414.72a51.5,51.5,0,1,1,0-103Z"></path><path fill="url(#b)" d="M376.6,281.616a28.231,28.231,0,1,0,28.23-28.23A28.262,28.262,0,0,0,376.6,281.616Zm40.461,0a12.231,12.231,0,1,1-12.231-12.23A12.245,12.245,0,0,1,417.06,281.616Z"></path><path fill="url(#c)" d="M155.405,352a8,8,0,0,0,0-16H94.6a8,8,0,0,0,0,16H112a17.958,17.958,0,0,1,16.2,10H94.6a8,8,0,0,0,0,16h33.6c-2.96,6-9.1,11-16.2,11H94.6A7.756,7.756,0,0,0,89.1,402.471l43.492,41.041a8.018,8.018,0,0,0,10.988-11.679L114.6,404.222A33.382,33.382,0,0,0,145.136,378h10.269a8,8,0,0,0,0-16H145.13a40.686,40.686,0,0,0-4.26-10Z"></path></svg>