<svg height="auto" viewBox="0 0 1600 900" xmlns="http://www.w3.org/2000/svg"><path d="M0 893.866c14-4.883 42-14.908 70-24.413 28-9.504 42-6.735 70-23.11 28-16.374 42-52.925 70-58.763 28-5.838 42 39.171 70 29.574 28-9.597 42-55.558 70-77.559 28-22 42-12.683 70-32.446 28-19.762 42-44.022 70-66.365 28-22.343 42-51.799 70-45.35 28 6.45 42 67.23 70 77.598 28 10.367 42 14.64 70-25.762s42-156.152 70-176.247c28-20.095 42 72.958 70 75.77 28 2.812 42-50.083 70-61.708 28-11.626 42 12.711 70 3.582 28-9.13 42-50.656 70-49.23 28 1.425 42 53.821 70 56.356 28 2.535 42-12.241 70-43.684 28-31.442 42-63.349 70-113.53 28-50.18 42-145.864 70-137.374 28 8.49 42 192.364 70 179.826 28-12.537 42-227.116 70-242.512 28-15.396 42 157.61 70 165.534 28 7.924 56-100.732 70-125.915L1600 900H0Z" fill="#00ba001a"/><path d="M0 893.866c14-4.883 42-14.908 70-24.413 28-9.504 42-6.735 70-23.11 28-16.374 42-52.925 70-58.763 28-5.838 42 39.171 70 29.574 28-9.597 42-55.558 70-77.559 28-22 42-12.683 70-32.446 28-19.762 42-44.022 70-66.365 28-22.343 42-51.799 70-45.35 28 6.45 42 67.23 70 77.598 28 10.367 42 14.64 70-25.762s42-156.152 70-176.247c28-20.095 42 72.958 70 75.77 28 2.812 42-50.083 70-61.708 28-11.626 42 12.711 70 3.582 28-9.13 42-50.656 70-49.23 28 1.425 42 53.821 70 56.356 28 2.535 42-12.241 70-43.684 28-31.442 42-63.349 70-113.53 28-50.18 42-145.864 70-137.374 28 8.49 42 192.364 70 179.826 28-12.537 42-227.116 70-242.512 28-15.396 42 157.61 70 165.534 28 7.924 56-100.732 70-125.915" fill="none" stroke="#00ba00cc" stroke-width="8"/><g fill="#00ba00ee"><circle cy="893.866" r="14"/><circle cx="70" cy="869.453" r="14"/><circle cx="140" cy="846.343" r="14"/><circle cx="210" cy="787.58" r="14"/><circle cx="280" cy="817.154" r="14"/><circle cx="350" cy="739.595" r="14"/><circle cx="420" cy="707.149" r="14"/><circle cx="490" cy="640.784" r="14"/><circle cx="560" cy="595.435" r="14"/><circle cx="630" cy="673.032" r="14"/><circle cx="700" cy="647.27" r="14"/><circle cx="770" cy="471.023" r="14"/><circle cx="840" cy="546.793" r="14"/><circle cx="910" cy="485.085" r="14"/><circle cx="980" cy="488.667" r="14"/><circle cx="1050" cy="439.436" r="14"/><circle cx="1120" cy="495.793" r="14"/><circle cx="1190" cy="452.109" r="14"/><circle cx="1260" cy="338.58" r="14"/><circle cx="1330" cy="201.205" r="14"/><circle cx="1400" cy="381.031" r="14"/><circle cx="1470" cy="138.519" r="14"/><circle cx="1540" cy="304.053" r="14"/><circle cx="1610" cy="178.138" r="14"/></g></svg>