<svg height="30" viewBox="0 0 1200 1000" xmlns="http://www.w3.org/2000/svg"><path d="M0 1000c24-53.03 72-227.273 120-265.152 48-37.878 72 83.334 120 75.758 48-7.576 72-45.454 120-113.636 48-68.182 72-204.546 120-227.273 48-22.727 72 136.364 120 113.636 48-22.727 72-219.697 120-227.272 48-7.576 72 189.394 120 189.394s72-113.637 120-189.394c48-75.758 72-181.819 120-189.394 48-7.576 96 121.212 120 151.515V1000H0Z" fill="#00ba001a"/><path d="M0 1000c24-53.03 72-227.273 120-265.152 48-37.878 72 83.334 120 75.758 48-7.576 72-45.454 120-113.636 48-68.182 72-204.546 120-227.273 48-22.727 72 136.364 120 113.636 48-22.727 72-219.697 120-227.272 48-7.576 72 189.394 120 189.394s72-113.637 120-189.394c48-75.758 72-181.819 120-189.394 48-7.576 96 121.212 120 151.515" fill="none" stroke="#00aa00" stroke-width="9"/><g fill="#00aa00"><circle cy="1000" r="14"/><circle cx="120" cy="734.848" r="14"/><circle cx="240" cy="810.606" r="14"/><circle cx="360" cy="696.97" r="14"/><circle cx="480" cy="469.697" r="14"/><circle cx="600" cy="583.333" r="14"/><circle cx="720" cy="356.061" r="14"/><circle cx="840" cy="545.455" r="14"/><circle cx="960" cy="356.061" r="14"/><circle cx="1080" cy="166.667" r="14"/><circle cx="1200" cy="318.182" r="14"/></g></svg>