<svg xmlns="http://www.w3.org/2000/svg" xmlns:xlink="http://www.w3.org/1999/xlink" viewBox="0 0 32 32" id="no-message"><defs><linearGradient id="a" x1="4.09" x2="27.41" y1="25.5" y2="2.17" gradientUnits="userSpaceOnUse"><stop offset="0" stop-color="#4996d2"></stop><stop offset="1" stop-color="#eb314c"></stop></linearGradient><linearGradient id="b" x1="9.29" x2="16.71" y1="13.71" y2="6.29" xlink:href="#a"></linearGradient><linearGradient id="c" x1="10.79" x2="21.21" y1="21.21" y2="10.79" xlink:href="#a"></linearGradient><linearGradient id="d" x1="21.17" x2="26.83" y1="26.83" y2="21.17" xlink:href="#a"></linearGradient></defs><path fill="url(#a)" d="M5 25h2v3a1 1 0 0 0 .47.85A1 1 0 0 0 8 29a1 1 0 0 0 .45-.11L16.24 25H18a1 1 0 0 0 0-2h-2a1 1 0 0 0-.45.11L9 26.38V24a1 1 0 0 0-1-1H5a1 1 0 0 1-1-1V6a1 1 0 0 1 1-1h22a1 1 0 0 1 1 1v16a1 1 0 0 0 2 0V6a3 3 0 0 0-3-3H5a3 3 0 0 0-3 3v16a3 3 0 0 0 3 3Z"></path><path fill="url(#b)" d="M7 11h12a1 1 0 0 0 0-2H7a1 1 0 0 0 0 2Z"></path><path fill="url(#c)" d="M7 17h18a1 1 0 0 0 0-2H7a1 1 0 0 0 0 2Z"></path><path fill="url(#d)" d="M26.83 21.17a1 1 0 0 0-1.42 0L24 22.59l-1.41-1.42a1 1 0 0 0-1.42 1.42L22.59 24l-1.42 1.41a1 1 0 0 0 0 1.42 1 1 0 0 0 .71.29 1 1 0 0 0 .71-.29L24 25.41l1.41 1.42a1 1 0 0 0 .71.29 1 1 0 0 0 .71-.29 1 1 0 0 0 0-1.42L25.41 24l1.42-1.41a1 1 0 0 0 0-1.42Z"></path></svg> 