<svg xmlns="http://www.w3.org/2000/svg" viewBox="0 0 64 64" id="click-chat"><defs><linearGradient id="a" x1="2" x2="62" y1="32" y2="32" gradientUnits="userSpaceOnUse"><stop offset="0" stop-color="#ea5a6b"></stop><stop offset="1" stop-color="#5a4ef6"></stop></linearGradient></defs><path fill="rgba(0, 0, 0, 0.4)" d="M10,11a1,1,0,0,1,1-1h4a1,1,0,0,1,0,2H11A1,1,0,0,1,10,11Zm9.0161,1H33a1,1,0,0,0,0-2H19.0161a1,1,0,0,0,0,2ZM11,18h1a1,1,0,0,0,0-2H11a1,1,0,0,0,0,2Zm0,6H23a1,1,0,0,0,0-2H11a1,1,0,0,0,0,2Zm6,4H11a1,1,0,0,0,0,2h6a1,1,0,0,0,0-2Zm8,0H21a1,1,0,0,0,0,2h4a1,1,0,0,0,0-2ZM37,12h1a1,1,0,0,0,0-2H37a1,1,0,0,0,0,2ZM16,16a1,1,0,0,0,0,2h6a1,1,0,0,0,0-2Zm23,1a1,1,0,0,0-1-1H26a1,1,0,0,0,0,2H38A1,1,0,0,0,39,17ZM61.8242,61.5664A1,1,0,0,1,61,62H40a.9994.9994,0,0,1-.9761-.7832l-1.1323-5.0957a5.0021,5.0021,0,0,1,1.93-5.1129c-2.4108-1.3925-6.34-4.1807-7.1263-7.9232A6.8044,6.8044,0,0,1,33.6943,38H20.8008a2.9831,2.9831,0,0,0-1.7647.5737L9.94,45.1885A5,5,0,0,1,2,41.145V7A5.0059,5.0059,0,0,1,7,2H41a5.0059,5.0059,0,0,1,5,5V27.6907c3.4494.68,6.9173,2.2059,7.9551,5.5573,1.69,5.4548,1.0556,12.1794.75,14.5631A4.9545,4.9545,0,0,1,58.17,50.8574l3.7627,9.7832A1,1,0,0,1,61.8242,61.5664ZM33.86,36,26.8574,25.1582A4.0144,4.0144,0,0,1,33.4321,20.56l5.0386,6.665a33.693,33.693,0,0,1,5.5293.15V7a3.0033,3.0033,0,0,0-3-3H7A3.0033,3.0033,0,0,0,4,7V41.145a3,3,0,0,0,4.7646,2.4263L16.4255,38H11a1,1,0,0,1,0-2Zm8.3831,14.032,5.64-1.2528,4.8168-1.07c.2705-2.0947.9365-8.7334-.6543-13.8692-1.4424-4.6543-10.56-4.8847-13.9555-4.583a.9893.9893,0,0,1-.8873-.3935l-5.3657-7.0987a2.0148,2.0148,0,0,0-3.2993,2.3086L36.5356,36.457a.9992.9992,0,0,1-.1015,1.2168c-1.5479,1.6953-2.1309,3.33-1.7822,4.9971C35.456,46.5124,40.9181,49.3862,42.2428,50.032ZM59.5439,60l-3.24-8.4238a2.9767,2.9767,0,0,0-3.4517-1.8516l-5.5453,1.2319L42.3428,52.06l-.0027,0-.2185.0485a3.0035,3.0035,0,0,0-2.2778,3.5791L40.8022,60Z" data-name="Layer 2"></path></svg>