<svg xmlns="http://www.w3.org/2000/svg" xmlns:xlink="http://www.w3.org/1999/xlink" width="35" height="35" id="plane"><defs><linearGradient id="a"><stop offset="0" stop-color="#f12711"></stop><stop offset="1" stop-color="#f5af19"></stop></linearGradient><linearGradient id="b" x1="1.793" x2="29" y1="15.787" y2="15.787" gradientUnits="userSpaceOnUse" xlink:href="#a"></linearGradient></defs><path style="text-indent:0;text-align:start;line-height:normal;text-transform:none;block-progression:tb;marker:none;-inkscape-font-specification:Sans" fill="url(#b)" d="M8.594 1.594a.503.503 0 0 0-.219.156L6.469 3.656a.522.522 0 0 0 .062.75l9.844 7.125-8.25 8.25-.656-.406-1.532-.875-1.5-.875a.515.515 0 0 0-.593.094l-.969.937-.938.969a.522.522 0 0 0 .032.75l4.968 3.75-.25.25c-.376.376.343 1.095.72.719l.25-.25 3.75 4.968c.177.22.554.236.75.032l.968-.938.938-.968a.515.515 0 0 0 .093-.594l-.875-1.5-.875-1.5-.406-.688 8.281-8.25 7.094 9.844c.167.25.577.282.781.063l1.907-1.907a.513.513 0 0 0 .093-.562L24.47 11.219l3.406-3.406a2.74 2.74 0 0 0 0-3.875 2.738 2.738 0 0 0-1.938-.813 2.81 2.81 0 0 0-1.968.813l-3.407 3.406L8.97 1.656a.505.505 0 0 0-.344-.062.5.5 0 0 0-.031 0zm.25 1.093 11 5.376-2.75 2.75-9.5-6.876zm17.093 1.438c.445 0 .874.155 1.22.5.69.69.69 1.779 0 2.469l-3.532 3.562-.063.063c-1.234 1.215-3.687 3.687-3.687 3.687l-8.813 8.813a.515.515 0 0 0-.093.593l.125.25.437.782.875 1.5.688 1.187-.688.657-.531.562-3.531-4.594 1.594-1.593c.354-.283.001-.99-.438-.875a.504.504 0 0 0-.25.156l-1.625 1.593-4.563-3.5.532-.562.687-.688 1.157.688 1.53.875.75.438.282.156c.19.1.444.06.594-.094l8.906-8.938 3.531-3.53a.5.5 0 0 0 .032-.032l3.625-3.625c.345-.345.805-.5 1.25-.5zM8.407 6.781l-1.25 1.282.687.687L9.125 7.5zm1.905 1.907-2.53 2.562.718.688 2.531-2.532zm13.407 3.28 5.375 11-1.219 1.22-6.875-9.5zm-1.313 8.782-2.562 2.563.718.687 2.532-2.531zm1.907 1.906-1.282 1.282.688.718L25 23.375z" color="#000" font-family="Sans" font-weight="400" overflow="visible"></path></svg>