<svg width="14" height="14" viewBox="0 0 14 16" fill="none" xmlns="http://www.w3.org/2000/svg">
<path d="M2.1911 5.85781L2.13807 5.80477L2.19111 5.85781L4.925 3.12391L4.925 14.6667C4.925 15.0763 5.25706 15.4084 5.66667 15.4084C6.07629 15.4084 6.40833 15.0763 6.40833 14.6667L6.40833 1.65524C6.40833 0.87575 5.46583 0.485366 4.91462 1.03654L4.96765 1.08957L4.91461 1.03654L1.14223 4.80894C0.852591 5.09856 0.852591 5.56818 1.14223 5.85781C1.43187 6.14743 1.90146 6.14743 2.1911 5.85781ZM12.8578 11.1911L12.8047 11.1381L12.8578 11.1911C13.1474 10.9015 13.1474 10.4319 12.8578 10.1423C12.5681 9.85263 12.0985 9.85263 11.8089 10.1423L9.075 12.8762V1.33337C9.075 0.923753 8.74295 0.591707 8.33333 0.591707C7.92371 0.591707 7.59167 0.923753 7.59167 1.33337L7.59167 14.3448C7.59167 15.1243 8.53418 15.5148 9.08537 14.9635L12.8578 11.1911Z" fill="#4d4d4d" stroke="#4d4d4d" stroke-width="0.15"/>
</svg>
